inDegrees=no
num_controls=7
num_derivatives=13
num_iterations=150
num_multipliers=7
num_parameters=0
num_slacks=7
num_states=26
objective=5.666772
objective_accelerations=0.488748
objective_balance=0.026023
objective_effort=0.524575
objective_height=4.602809
objective_ligament=0.024616
solver_duration=1680.700036
status=Solve_Succeeded
success=true
DataType=double
version=3
OpenSimVersion=4.4-2022-07-23-0e9fedc
endheader
time	/jointset/ground_pelvis/pelvis_tilt/value	/jointset/ground_pelvis/pelvis_tx/value	/jointset/ground_pelvis/pelvis_ty/value	/jointset/hip_l/hip_flexion_l/value	/jointset/hip_l/hip_adduction_l/value	/jointset/hip_l/hip_rotation_l/value	/jointset/back/lumbar_extension/value	/jointset/patellofemoral_l/patellar_flexion_l/value	/jointset/knee_l/knee_flexion_l/value	/jointset/knee_l/knee_adduction_l/value	/jointset/knee_l/knee_rotation_l/value	/jointset/ankle_l/ankle_angle_l/value	/jointset/subtalar_l/subtalar_angle_l/value	/jointset/ground_pelvis/pelvis_tilt/speed	/jointset/ground_pelvis/pelvis_tx/speed	/jointset/ground_pelvis/pelvis_ty/speed	/jointset/hip_l/hip_flexion_l/speed	/jointset/hip_l/hip_adduction_l/speed	/jointset/hip_l/hip_rotation_l/speed	/jointset/back/lumbar_extension/speed	/jointset/patellofemoral_l/patellar_flexion_l/speed	/jointset/knee_l/knee_flexion_l/speed	/jointset/knee_l/knee_adduction_l/speed	/jointset/knee_l/knee_rotation_l/speed	/jointset/ankle_l/ankle_angle_l/speed	/jointset/subtalar_l/subtalar_angle_l/speed	/forceset/tau_hip_flexion_l	/forceset/tau_hip_adduction_l	/forceset/tau_hip_rotation_l	/forceset/tau_knee_flexion_l	/forceset/tau_ankle_angle_l	/forceset/tau_subtalar_angle_l	/forceset/tau_lumbar_extension	lambda_cid13_p0	lambda_cid13_p1	lambda_cid13_p2	lambda_cid13_p3	lambda_cid13_p4	lambda_cid13_p5	lambda_cid14_p0	/jointset/ground_pelvis/pelvis_tilt/accel	/jointset/ground_pelvis/pelvis_tx/accel	/jointset/ground_pelvis/pelvis_ty/accel	/jointset/hip_l/hip_flexion_l/accel	/jointset/hip_l/hip_adduction_l/accel	/jointset/hip_l/hip_rotation_l/accel	/jointset/back/lumbar_extension/accel	/jointset/patellofemoral_l/patellar_flexion_l/accel	/jointset/knee_l/knee_flexion_l/accel	/jointset/knee_l/knee_adduction_l/accel	/jointset/knee_l/knee_rotation_l/accel	/jointset/ankle_l/ankle_angle_l/accel	/jointset/subtalar_l/subtalar_angle_l/accel	gamma_cid13_p0	gamma_cid13_p1	gamma_cid13_p2	gamma_cid13_p3	gamma_cid13_p4	gamma_cid13_p5	gamma_cid14_p0
0.5	-0.1436009907351125	-0.07112456812727366	0.8092626825835495	0.9653629105651715	-0.3328201993211471	-0.09835695953468641	-0.7904187736938066	0.8265012860396059	0.8265012860397486	-0.1280740813527378	-0.1744837446245665	0.05734094133522184	-0.02168057511444742	-0.2683808229978483	-0.2291182516414028	-0.3919513598571783	1.686985462902046	-0.03750727091287263	0.5202641535342482	-0.8347017593233188	1.526419194151116	1.526419194151118	0.1062303287480201	0.0004449755155129991	0.2055667849025939	0.02054272037605803	-0.3017493979067334	0.009268281880300436	-0.0004295930743952184	-0.2177894199286759	0.1335137899090677	0.05492696883042542	0.3432954197651468	-1.816048021257123	-24.84521390172734	5.001216127892936	-11.97899036644055	-704.6203120080964	-81.37608401489754	-13.50216552531403	0.3326704517197419	0.7426695196146884	-0.1251703337088765	-1.56015954220063	0.3412481385232028	-0.4196535626474322	1.892631646956223	-1.205923764719279	-1.205923764719249	-0.1490330704343936	0.01421800105851583	-0.0030438010084606	0.365454888681128	-8.392162363908315e-08	-4.71651065445719e-07	2.044073630927246e-07	-3.988599811321492e-08	-1.128574554021497e-07	7.863567206659065e-09	-1.043202012150529e-07
0.51	-0.1462677426564713	-0.07337854310257362	0.805337740724151	0.9821523157824046	-0.3331788012766324	-0.09317635313886451	-0.7986703793492781	0.8417028983241581	0.8417028983243503	-0.1270200391133275	-0.1744794452481089	0.05939573700030529	-0.02145770269544349	-0.2649293748582707	-0.2216707864520735	-0.3929515683009714	1.67066764761685	-0.03422312906319373	0.5157911349721991	-0.8155390353728844	1.513684954220646	1.513684954220647	0.1045678039745094	0.0004116246475597399	0.2053426362858363	0.02400821724052414	-0.3088296854243927	0.009377991483066265	-0.0005260824429180838	-0.2203469437481938	0.1340709035424159	0.05524936407310121	0.3498862861969183	-1.89312541927604	-24.92648447004706	4.962486460596013	-11.9544041487281	-708.9386223257919	-81.25407301832786	-12.92609054690337	0.3574016047941638	0.7466707623185938	-0.07465105564083814	-1.701792141015721	0.3205293290793561	-0.4711151746312017	1.940143229539983	-1.339899912327303	-1.339899912327393	-0.1764888938233425	-0.01254957026741436	-0.03957287890147831	0.3336135247256335	-8.203327678650058e-08	-4.206974503139957e-07	2.249785630255497e-07	-3.38625308386606e-08	-1.040771940141308e-07	1.632189300425293e-08	-1.00241941751742e-07
0.52	-0.1488987761745247	-0.07555786627723704	0.8014053557891297	0.9987717029228945	-0.333504855389439	-0.08804247476298792	-0.8067279476731598	0.8567706230483583	0.8567706230486611	-0.1259829474642268	-0.1744755669682489	0.06144679668184557	-0.02120087201991613	-0.2612371423298629	-0.214187891514099	-0.3934399749817608	1.652981847558192	-0.03099770237795939	0.5109185495442334	-0.7958942930042189	1.499641682085528	1.49964168208553	0.1028402106804508	0.0003607561977908748	0.2048195881933891	0.0273343716808385	-0.3159099729420511	0.009487701085849721	-0.0006225718112594564	-0.222904467567716	0.1346280171757752	0.05557175931579724	0.3564771526286815	-1.974406952279102	-25.00786554805555	4.924741549240073	-11.95251422199081	-713.345158902916	-81.16266678364229	-12.34739323240335	0.3808273294868501	0.7497554693429229	-0.02280998110831188	-1.833756496892642	0.3295051056342094	-0.4995669358310991	1.989035330602911	-1.467730205648422	-1.46773020564835	-0.1620467745438186	0.01071448469498293	-0.06282369614740474	0.3375864038503432	-8.124519738676248e-08	-3.55121090860825e-07	2.624412609655235e-07	-2.349210090918328e-08	-9.702402344224122e-08	2.53942859154291e-08	-9.593550061003409e-08
0.53	-0.1514917644193683	-0.07766221863975915	0.7974706573243683	1.015207553036405	-0.3337989256803773	-0.08295904909790477	-0.8145867450654034	0.8716914925159306	0.8716914925160085	-0.1249634860809636	-0.1744720599500862	0.06349122554886026	-0.02091142726555603	-0.2573249753278901	-0.2066796505935858	-0.3934122236950208	1.633967103164791	-0.02782843127955604	0.5056976878646694	-0.7757972634904456	1.484322453999432	1.484322453999434	0.1010471626438323	0.0003346514659445616	0.2040236207408441	0.03053107187406344	-0.3226408453077284	0.0094570691046807	-0.0007378331370516914	-0.2256988096893077	0.1354916017730256	0.05574202744604501	0.3627646207039572	-1.955866053989198	-25.03847053642809	4.876405079965497	-11.98445331560933	-717.6434894897305	-81.00243782504242	-11.76716655691947	0.4017319740679445	0.751794351861906	0.02867316051074107	-1.968504766318024	0.3088312760187569	-0.5437627126377469	2.030225055547857	-1.595463989054473	-1.595463989054488	-0.1887229486383639	-0.01010751919476073	-0.09437803688132659	0.3072040476539533	-7.863476585433147e-08	-3.031923246508967e-07	2.815621422634814e-07	-1.666833123719791e-08	-8.899125521774944e-08	3.290187617241321e-08	-9.108291799970351e-08
0.54	-0.1540445668765211	-0.07969140140338687	0.7935388574678639	1.03144662143481	-0.3340616646275139	-0.0779299154353181	-0.8222425345037567	0.8864528807268385	0.886452880726727	-0.1239621130041654	-0.1744689808926233	0.06552641578793965	-0.02059071706514507	-0.2531999847851819	-0.1991539717352174	-0.3928602533303862	1.613625504541217	-0.0247314336181592	0.5000601490403551	-0.7552927022252311	1.467745430754773	1.467745430754775	0.09922254939053103	0.0002751640512807793	0.2029718626053623	0.03358746089110488	-0.3293717176733792	0.009426437123573484	-0.0008530944629884576	-0.2284931518108781	0.1363551863703014	0.05591229557636745	0.3690520887792358	-1.942223731012483	-25.06901432996726	4.828968828287834	-12.03829068852492	-722.0400011086857	-80.87341636943891	-11.18658111073607	0.4233920376349214	0.753243056913219	0.08203383447043594	-2.09912734292717	0.3150504182328174	-0.5829023647814846	2.070541680891565	-1.719289237360732	-1.719289237360719	-0.1683598178802227	0.00403794813114388	-0.1139818327357359	0.3095241686132417	-7.400811494104868e-08	-2.663630233058321e-07	2.80389949829847e-07	-1.376852610541645e-08	-7.987467682442124e-08	3.8678195407738e-08	-8.562609376451376e-08
0.55	-0.1565550915342233	-0.08164531683159497	0.7896151895225196	1.047475822352614	-0.3342937785132806	-0.07295902135897621	-0.8296913759537311	0.9010423481290017	0.9010423481287617	-0.1229791608104696	-0.1744664891756365	0.06754984300732167	-0.02024012236124103	-0.2488709390267557	-0.1916333889808615	-0.3917862207233866	1.592005000574338	-0.02170661357878384	0.4940602563723143	-0.7344231331643387	1.449948241244254	1.449948241244244	0.09735722513441597	0.0002224849550675664	0.2016717878199295	0.03650441105585327	-0.3358700188509822	0.009344872405719301	-0.0009624159064356606	-0.2311401930607503	0.1369053183064312	0.05602229383118349	0.3750483545258294	-2.019817806863384	-25.05695521105524	4.774223052047986	-11.93879319666263	-726.2079557552644	-80.68866292869998	-10.60705374631543	0.4427533328801155	0.7508221842371349	0.1331402451782108	-2.224973576142566	0.293901443447027	-0.6173663378973583	2.103032710114344	-1.839888542190311	-1.839888542192194	-0.197259207070931	-0.009962462873164837	-0.1442965109433857	0.2787267802731601	-6.24770069878413e-08	-2.444110230793467e-07	2.292447176490499e-07	-1.89027123208437e-08	-6.521816340859516e-08	3.713781114861873e-08	-7.529128167727088e-08
0.5600000000000001	-0.1590213072367881	-0.08352415517235322	0.7857048723575188	1.063282525900208	-0.3344961034693271	-0.0680498929333142	-0.8369299480748152	0.9154478526891816	0.9154478526888643	-0.1220151899548184	-0.1744645325744802	0.06955901423695364	-0.01986116888771646	-0.2443381937508666	-0.1841385542452537	-0.3901900972617615	1.569126030504489	-0.01877364767312376	0.4877070189009865	-0.7132388364462927	1.430952862362024	1.430952862362002	0.09542628177455569	0.0001681408838328168	0.2001206646546383	0.03925921481530428	-0.3423683200285864	0.009263307687884989	-0.001071737349729831	-0.2337872343106226	0.1374554502425779	0.05613229208603759	0.3810446202724124	-2.102810046484433	-25.04474894447113	4.720365522994042	-11.85970810078427	-730.4803312925894	-80.53476771110181	-10.03015914937458	0.4641319411284217	0.7480934531629074	0.1864520053953866	-2.350820563521104	0.2966795914897346	-0.6535713254391196	2.133487212322628	-1.958927111702875	-1.95892711170284	-0.1814836386291174	0.003704953126565413	-0.1641915087083242	0.277094887553406	-4.26605505867247e-08	-2.403117841951556e-07	1.181318377716595e-07	-3.367768815292106e-08	-4.391372796577187e-08	2.68173826961669e-08	-5.910288416756444e-08
